<svg xmlns="http://www.w3.org/2000/svg" viewBox="0 0 800 800" role="img" aria-labelledby="title desc">
  <title id="title">Vastu map energy audit</title>
  <desc id="desc">An architectural floor plan with a directional Vastu compass.</desc>
  <defs>
    <linearGradient id="bg2" x1="0" y1="0" x2="1" y2="1"><stop stop-color="#f4fbf1"/><stop offset="1" stop-color="#d7ead9"/></linearGradient>
    <filter id="s2" x="-20%" y="-20%" width="140%" height="140%"><feDropShadow dx="0" dy="18" stdDeviation="20" flood-color="#0f2d1a" flood-opacity=".16"/></filter>
  </defs>
  <rect width="800" height="800" rx="56" fill="url(#bg2)"/>
  <g filter="url(#s2)">
    <path d="M112 165h430v470H112z" fill="#fff" stroke="#1b4332" stroke-width="8"/>
    <path d="M112 330h162V165M274 330v168h268M386 330V165M274 498H112M386 498v137" fill="none" stroke="#2d5a3d" stroke-width="8"/>
    <path d="M149 212h78v72h-78zM424 212h80v72h-80zM149 542h79v56h-79z" fill="#e8f5e9" stroke="#93b69c" stroke-width="5"/>
    <path d="M319 530v74h36" fill="none" stroke="#d0a64a" stroke-width="10" stroke-linecap="round"/>
  </g>
  <g transform="translate(568 420)">
    <circle r="132" fill="#fff" stroke="#1b4332" stroke-width="9" filter="url(#s2)"/>
    <circle r="100" fill="none" stroke="#93b69c" stroke-width="3" stroke-dasharray="8 9"/>
    <path d="M0-101L29 4 0 30-29 4z" fill="#d0a64a"/>
    <path d="M0 101L29-4 0-30-29-4z" fill="#1b4332"/>
    <text y="-82" text-anchor="middle" font-family="Arial,sans-serif" font-size="30" font-weight="700" fill="#1b4332">N</text>
    <text x="86" y="10" text-anchor="middle" font-family="Arial,sans-serif" font-size="28" fill="#2d5a3d">E</text>
    <text y="104" text-anchor="middle" font-family="Arial,sans-serif" font-size="28" fill="#2d5a3d">S</text>
    <text x="-86" y="10" text-anchor="middle" font-family="Arial,sans-serif" font-size="28" fill="#2d5a3d">W</text>
  </g>
  <path d="M122 700h556" stroke="#1b4332" stroke-width="6" stroke-linecap="round" opacity=".18"/>
  <text x="400" y="746" text-anchor="middle" font-family="Arial,sans-serif" font-size="28" font-weight="700" letter-spacing="4" fill="#1b4332">VASTU MAP AUDIT</text>
</svg>
